0
SECTION
2
HEADER
9
$INSUNITS
70
4
9
$ACADVER
1
AC1014
9
$HANDSEED
5
FFFF
0
ENDSEC
0
SECTION
2
TABLES
0
TABLE
2
VPORT
5
8
100
AcDbSymbolTable
0
ENDTAB
0
TABLE
2
LTYPE
5
5
100
AcDbSymbolTable
0
LTYPE
5
14
100
AcDbSymbolTableRecord
100
AcDbLinetypeTableRecord
2
BYBLOCK
70
0
0
LTYPE
5
15
100
AcDbSymbolTableRecord
100
AcDbLinetypeTableRecord
2
BYLAYER
70
0
0
ENDTAB
0
TABLE
2
LAYER
5
2
100
AcDbSymbolTable
70
2
0
LAYER
5
50
100
AcDbSymbolTableRecord
100
AcDbLayerTableRecord
2
0
70
0
6
CONTINUOUS
0
ENDTAB
0
TABLE
2
STYLE
5
3
100
AcDbSymbolTable
70
1
0
STYLE
5
11
100
AcDbSymbolTableRecord
100
AcDbTextStyleTableRecord
2
STANDARD
70
0
0
ENDTAB
0
TABLE
2
VIEW
5
6
100
AcDbSymbolTable
70
0
0
ENDTAB
0
TABLE
2
UCS
5
7
100
AcDbSymbolTable
70
0
0
ENDTAB
0
TABLE
2
APPID
5
9
100
AcDbSymbolTable
70
2
0
APPID
5
12
100
AcDbSymbolTableRecord
100
AcDbRegAppTableRecord
2
ACAD
70
0
0
ENDTAB
0
TABLE
2
DIMSTYLE
5
A
100
AcDbSymbolTable
70
1
0
ENDTAB
0
TABLE
2
BLOCK_RECORD
5
1
100
AcDbSymbolTable
70
1
0
BLOCK_RECORD
5
1F
100
AcDbSymbolTableRecord
100
AcDbBlockTableRecord
2
*MODEL_SPACE
0
BLOCK_RECORD
5
1B
100
AcDbSymbolTableRecord
100
AcDbBlockTableRecord
2
*PAPER_SPACE
0
ENDTAB
0
ENDSEC
0
SECTION
2
BLOCKS
0
BLOCK
5
20
100
AcDbEntity
100
AcDbBlockBegin
2
*MODEL_SPACE
0
ENDBLK
5
21
100
AcDbEntity
100
AcDbBlockEnd
0
BLOCK
5
1C
100
AcDbEntity
100
AcDbBlockBegin
2
*PAPER_SPACE
0
ENDBLK
5
1D
100
AcDbEntity
100
AcDbBlockEnd
0
ENDSEC
0
SECTION
2
ENTITIES
0
LWPOLYLINE
5
100
100
AcDbEntity
8
0
100
AcDbPolyline
90
22
70
1
43
0.0
10
-407.86818419254234
20
333.49999970569911
42
-0.22169466264293941
10
-392.54729533016291
20
326.35575189943006
10
-390.72086134254471
20
324.17909263304989
42
0.22169466264293008
10
-384.97552801915242
20
321.499999705699
10
-375.9710800643237
20
321.49999970569894
42
0.19085663008314185
10
-370.83494241813514
20
323.53464609596762
10
-352.48576141836577
20
340.7785292990302
42
0.20699301567612696
10
-350.12189906455444
20
346.24388290876152
10
-350.12189906455438
20
365.02557603976027
42
0.24858802345517156
10
-353.4106385953674
20
371.23164446193084
10
-372.63518438427309
20
384.27687119995323
42
0.15016343104911983
10
-376.84644485346018
20
385.57080277778277
10
-380.95867261476417
20
385.57080277778283
42
0.10440657646828531
10
-383.99027309281882
20
384.93078809419984
10
-394.48190229548334
20
380.29427261504082
42
-0.093854766873751203
10
-401.7304908049183
20
378.60503342206073
10
-403.82437379145006
20
378.51746619959977
42
-0.010449416519531218
10
-404.66005332893445
20
378.49999956969219
10
-422.95796893095343
20
378.49999966615894
42
0.41421356391723357
10
-430.45796897049343
20
370.99999966615894
10
-430.45796897049365
20
340.99999970569911
42
0.41421356237308671
10
-422.95796897049365
20
333.49999970569905
0
CIRCLE
5
101
100
AcDbEntity
8
0
100
AcDbCircle
10
-374.62189906455444
20
355.99999992342691
30
0
40
2.6500000000000004
210
0
220
-0
230
1
0
CIRCLE
5
102
100
AcDbEntity
8
0
100
AcDbCircle
10
-356.62189906455444
20
355.99999992342691
30
0
40
2.6500000000000004
210
0
220
-0
230
1
0
CIRCLE
5
103
100
AcDbEntity
8
0
100
AcDbCircle
10
-392.62189906455438
20
355.99999992342691
30
0
40
2.6500000000000004
210
0
220
-0
230
1
0
CIRCLE
5
104
100
AcDbEntity
8
0
100
AcDbCircle
10
-426.99999999996805
20
346.00000000000074
30
0
40
1.6000000000000003
210
0
220
-0
230
1
0
CIRCLE
5
105
100
AcDbEntity
8
0
100
AcDbCircle
10
-426.99999999996805
20
366.00000000000057
30
0
40
1.6000000000000003
210
0
220
-0
230
1
0
CIRCLE
5
106
100
AcDbEntity
8
0
100
AcDbCircle
10
-406.99999999996817
20
366.00000000000057
30
0
40
1.6000000000000003
210
0
220
-0
230
1
0
CIRCLE
5
107
100
AcDbEntity
8
0
100
AcDbCircle
10
-406.99999999996817
20
346.00000000000074
30
0
40
1.6000000000000003
210
0
220
-0
230
1
0
CIRCLE
5
108
100
AcDbEntity
8
0
100
AcDbCircle
10
-400.89203102944253
20
355.99999935597464
30
0
40
1.6000000000000003
210
0
220
-0
230
1
0
CIRCLE
5
109
100
AcDbEntity
8
0
100
AcDbCircle
10
-378.54203102944246
20
380.395999910846
30
0
40
1.6659999999999999
210
0
220
-0
230
1
0
CIRCLE
5
110
100
AcDbEntity
8
0
100
AcDbCircle
10
-377.1320310294426
20
331.40599991058468
30
0
40
1.6659999999999999
210
0
220
-0
230
1
0
ENDSEC
0
SECTION
2
OBJECTS
0
DICTIONARY
5
C
100
AcDbDictionary
3
ACAD_GROUP
350
D
3
ACAD_MLINESTYLE
350
17
0
DICTIONARY
5
D
100
AcDbDictionary
0
DICTIONARY
5
1A
330
C
100
AcDbDictionary
0
DICTIONARY
5
17
100
AcDbDictionary
0
ENDSEC
0
EOF
