0
SECTION
2
HEADER
9
$INSUNITS
70
4
9
$ACADVER
1
AC1014
9
$HANDSEED
5
FFFF
0
ENDSEC
0
SECTION
2
TABLES
0
TABLE
2
VPORT
5
8
100
AcDbSymbolTable
0
ENDTAB
0
TABLE
2
LTYPE
5
5
100
AcDbSymbolTable
0
LTYPE
5
14
100
AcDbSymbolTableRecord
100
AcDbLinetypeTableRecord
2
BYBLOCK
70
0
0
LTYPE
5
15
100
AcDbSymbolTableRecord
100
AcDbLinetypeTableRecord
2
BYLAYER
70
0
0
ENDTAB
0
TABLE
2
LAYER
5
2
100
AcDbSymbolTable
70
2
0
LAYER
5
50
100
AcDbSymbolTableRecord
100
AcDbLayerTableRecord
2
0
70
0
6
CONTINUOUS
0
ENDTAB
0
TABLE
2
STYLE
5
3
100
AcDbSymbolTable
70
1
0
STYLE
5
11
100
AcDbSymbolTableRecord
100
AcDbTextStyleTableRecord
2
STANDARD
70
0
0
ENDTAB
0
TABLE
2
VIEW
5
6
100
AcDbSymbolTable
70
0
0
ENDTAB
0
TABLE
2
UCS
5
7
100
AcDbSymbolTable
70
0
0
ENDTAB
0
TABLE
2
APPID
5
9
100
AcDbSymbolTable
70
2
0
APPID
5
12
100
AcDbSymbolTableRecord
100
AcDbRegAppTableRecord
2
ACAD
70
0
0
ENDTAB
0
TABLE
2
DIMSTYLE
5
A
100
AcDbSymbolTable
70
1
0
ENDTAB
0
TABLE
2
BLOCK_RECORD
5
1
100
AcDbSymbolTable
70
1
0
BLOCK_RECORD
5
1F
100
AcDbSymbolTableRecord
100
AcDbBlockTableRecord
2
*MODEL_SPACE
0
BLOCK_RECORD
5
1B
100
AcDbSymbolTableRecord
100
AcDbBlockTableRecord
2
*PAPER_SPACE
0
ENDTAB
0
ENDSEC
0
SECTION
2
BLOCKS
0
BLOCK
5
20
100
AcDbEntity
100
AcDbBlockBegin
2
*MODEL_SPACE
0
ENDBLK
5
21
100
AcDbEntity
100
AcDbBlockEnd
0
BLOCK
5
1C
100
AcDbEntity
100
AcDbBlockBegin
2
*PAPER_SPACE
0
ENDBLK
5
1D
100
AcDbEntity
100
AcDbBlockEnd
0
ENDSEC
0
SECTION
2
ENTITIES
0
LWPOLYLINE
5
100
100
AcDbEntity
8
0
100
AcDbPolyline
90
8
70
1
43
0.0
10
-417.32580446191821
20
85.505646653561413
10
-417.32580446191821
20
89.505646653561399
42
0.41421356237309503
10
-419.82580446191821
20
92.005646653561399
10
-434.82580446191821
20
92.005646653561399
42
0.41421356237309503
10
-437.32580446191821
20
89.505646653561399
10
-437.32580446191821
20
85.505646653561399
42
0.41421356237309503
10
-434.82580446191821
20
83.005646653561399
10
-419.82580446191821
20
83.005646653561413
42
0.41421356237309503
0
LWPOLYLINE
5
101
100
AcDbEntity
8
0
100
AcDbPolyline
90
13
70
1
43
0.0
10
-445.00009607258198
20
-31.874999999861096
42
-0.41421376627779527
10
-447.00009607258153
20
-29.874998607512655
10
-447.00000000440753
20
101.26300000013887
10
-447.00000000054098
20
106.62500000013893
42
-0.41421356237308815
10
-445.50000000054098
20
108.12500000013887
10
-407.06659275728668
20
108.12500000013887
42
-0.016643577493686678
10
-406.9335547362391
20
108.12057031585211
10
-258.86696197949323
20
98.249464132069022
42
-0.39484790518825952
10
-257.00000000054087
20
96.253893816355841
10
-257.00000000054069
20
59.257380758077019
42
-0.26344713910232059
10
-257.97100848968569
20
57.542394906651921
10
-406.52497641958286
20
-31.589985851286176
42
-0.13593295954569845
10
-407.55396793043786
20
-31.874999999861092
0
CIRCLE
5
102
100
AcDbEntity
8
0
100
AcDbCircle
10
-437.00000000003695
20
98.125000000286192
30
0
40
2.6500000000000057
210
0
220
-0
230
1
0
CIRCLE
5
103
100
AcDbEntity
8
0
100
AcDbCircle
10
-417.00000000003797
20
78.125000000286136
30
0
40
2.6499999999999342
210
0
220
-0
230
1
0
CIRCLE
5
104
100
AcDbEntity
8
0
100
AcDbCircle
10
-437.00000000039165
20
78.125000000225782
30
0
40
2.6500000000000057
210
0
220
-0
230
1
0
CIRCLE
5
105
100
AcDbEntity
8
0
100
AcDbCircle
10
-417.00000000039211
20
98.125000000225739
30
0
40
2.6500000000000057
210
0
220
-0
230
1
0
CIRCLE
5
106
100
AcDbEntity
8
0
100
AcDbCircle
10
-416.99994082630622
20
59.125000000118305
30
0
40
2.7499999999999858
210
0
220
0
230
1
0
CIRCLE
5
107
100
AcDbEntity
8
0
100
AcDbCircle
10
-436.99994082630622
20
59.125000000118305
30
0
40
2.7499999999999858
210
0
220
0
230
1
0
CIRCLE
5
108
100
AcDbEntity
8
0
100
AcDbCircle
10
-297.66666666720749
20
88.124999997250129
30
0
40
2.7499999999999858
210
0
220
0
230
1
0
CIRCLE
5
109
100
AcDbEntity
8
0
100
AcDbCircle
10
-436.99998027617823
20
2.4583333334653723
30
0
40
2.7499999999999858
210
0
220
0
230
1
0
CIRCLE
5
110
100
AcDbEntity
8
0
100
AcDbCircle
10
-416.99998027617823
20
2.4583333334653723
30
0
40
2.7499999999999858
210
0
220
0
230
1
0
CIRCLE
5
111
100
AcDbEntity
8
0
100
AcDbCircle
10
-361.00000000054081
20
68.125000000138968
30
0
40
2.7499999999999858
210
0
220
0
230
1
0
CIRCLE
5
112
100
AcDbEntity
8
0
100
AcDbCircle
10
-361.00000000054081
20
88.124999997250129
30
0
40
2.7499999999999858
210
0
220
0
230
1
0
CIRCLE
5
113
100
AcDbEntity
8
0
100
AcDbCircle
10
-436.99996055124234
20
30.791666666791841
30
0
40
2.7499999999999858
210
0
220
0
230
1
0
CIRCLE
5
114
100
AcDbEntity
8
0
100
AcDbCircle
10
-416.99996055124234
20
30.791666666791841
30
0
40
2.7499999999999858
210
0
220
0
230
1
0
CIRCLE
5
115
100
AcDbEntity
8
0
100
AcDbCircle
10
-417.00000000111413
20
-25.874999999861096
30
0
40
2.7499999999999858
210
0
220
0
230
1
0
CIRCLE
5
116
100
AcDbEntity
8
0
100
AcDbCircle
10
-297.66666666720749
20
68.125000000138968
30
0
40
2.7499999999999858
210
0
220
0
230
1
0
CIRCLE
5
117
100
AcDbEntity
8
0
100
AcDbCircle
10
-329.33333333387407
20
88.124999997250129
30
0
40
2.7499999999999858
210
0
220
0
230
1
0
CIRCLE
5
118
100
AcDbEntity
8
0
100
AcDbCircle
10
-329.33333333387407
20
68.125000000138968
30
0
40
2.7499999999999858
210
0
220
0
230
1
0
CIRCLE
5
119
100
AcDbEntity
8
0
100
AcDbCircle
10
-437.00000000111413
20
-25.874999999861096
30
0
40
2.7499999999999858
210
0
220
0
230
1
0
CIRCLE
5
120
100
AcDbEntity
8
0
100
AcDbCircle
10
-266.00000000054087
20
68.125000000138968
30
0
40
2.7499999999999858
210
0
220
0
230
1
0
CIRCLE
5
121
100
AcDbEntity
8
0
100
AcDbCircle
10
-266.00000000054087
20
88.124999997250129
30
0
40
2.7499999999999858
210
0
220
0
230
1
0
CIRCLE
5
122
100
AcDbEntity
8
0
100
AcDbCircle
10
-377.00000000054104
20
-4.5454769681086393
30
0
40
2.7499999999999858
210
0
220
0
230
1
0
ENDSEC
0
SECTION
2
OBJECTS
0
DICTIONARY
5
C
100
AcDbDictionary
3
ACAD_GROUP
350
D
3
ACAD_MLINESTYLE
350
17
0
DICTIONARY
5
D
100
AcDbDictionary
0
DICTIONARY
5
1A
330
C
100
AcDbDictionary
0
DICTIONARY
5
17
100
AcDbDictionary
0
ENDSEC
0
EOF
