0
SECTION
2
HEADER
9
$INSUNITS
70
4
9
$ACADVER
1
AC1014
9
$HANDSEED
5
FFFF
0
ENDSEC
0
SECTION
2
TABLES
0
TABLE
2
VPORT
5
8
100
AcDbSymbolTable
0
ENDTAB
0
TABLE
2
LTYPE
5
5
100
AcDbSymbolTable
0
LTYPE
5
14
100
AcDbSymbolTableRecord
100
AcDbLinetypeTableRecord
2
BYBLOCK
70
0
0
LTYPE
5
15
100
AcDbSymbolTableRecord
100
AcDbLinetypeTableRecord
2
BYLAYER
70
0
0
ENDTAB
0
TABLE
2
LAYER
5
2
100
AcDbSymbolTable
70
2
0
LAYER
5
50
100
AcDbSymbolTableRecord
100
AcDbLayerTableRecord
2
0
70
0
6
CONTINUOUS
0
ENDTAB
0
TABLE
2
STYLE
5
3
100
AcDbSymbolTable
70
1
0
STYLE
5
11
100
AcDbSymbolTableRecord
100
AcDbTextStyleTableRecord
2
STANDARD
70
0
0
ENDTAB
0
TABLE
2
VIEW
5
6
100
AcDbSymbolTable
70
0
0
ENDTAB
0
TABLE
2
UCS
5
7
100
AcDbSymbolTable
70
0
0
ENDTAB
0
TABLE
2
APPID
5
9
100
AcDbSymbolTable
70
2
0
APPID
5
12
100
AcDbSymbolTableRecord
100
AcDbRegAppTableRecord
2
ACAD
70
0
0
ENDTAB
0
TABLE
2
DIMSTYLE
5
A
100
AcDbSymbolTable
70
1
0
ENDTAB
0
TABLE
2
BLOCK_RECORD
5
1
100
AcDbSymbolTable
70
1
0
BLOCK_RECORD
5
1F
100
AcDbSymbolTableRecord
100
AcDbBlockTableRecord
2
*MODEL_SPACE
0
BLOCK_RECORD
5
1B
100
AcDbSymbolTableRecord
100
AcDbBlockTableRecord
2
*PAPER_SPACE
0
ENDTAB
0
ENDSEC
0
SECTION
2
BLOCKS
0
BLOCK
5
20
100
AcDbEntity
100
AcDbBlockBegin
2
*MODEL_SPACE
0
ENDBLK
5
21
100
AcDbEntity
100
AcDbBlockEnd
0
BLOCK
5
1C
100
AcDbEntity
100
AcDbBlockBegin
2
*PAPER_SPACE
0
ENDBLK
5
1D
100
AcDbEntity
100
AcDbBlockEnd
0
ENDSEC
0
SECTION
2
ENTITIES
0
ARC
5
100
100
AcDbEntity
8
0
100
AcDbCircle
10
35.500000000000028
20
-78.499999999999929
30
0
40
6.5000000000000213
210
0
220
0
230
1
100
AcDbArc
50
270.00000000000011
51
360
0
LINE
5
101
100
AcDbEntity
8
0
100
AcDbLine
10
42.000000000000043
20
-78.5
30
0
11
42.000000000000028
21
-21.499999999999844
31
0
0
ARC
5
102
100
AcDbEntity
8
0
100
AcDbCircle
10
35.500000000000043
20
-21.499999999999918
30
0
40
6.4999999999999858
210
0
220
-0
230
1
100
AcDbArc
50
0
51
90
0
LINE
5
103
100
AcDbEntity
8
0
100
AcDbLine
10
35.500000000000043
20
-14.999999999999915
30
0
11
-45.499999999999936
21
-14.999999999999929
31
0
0
ARC
5
104
100
AcDbEntity
8
0
100
AcDbCircle
10
-45.499999999999936
20
-21.499999999999915
30
0
40
6.5000000000000018
210
0
220
-0
230
1
100
AcDbArc
50
90
51
180
0
LINE
5
105
100
AcDbEntity
8
0
100
AcDbLine
10
-51.999999999999943
20
-21.499999999999915
30
0
11
-51.999999999999922
21
-78.499999999999943
31
0
0
ARC
5
106
100
AcDbEntity
8
0
100
AcDbCircle
10
-45.499999999999936
20
-78.499999999999929
30
0
40
6.4999999999999858
210
0
220
0
230
1
100
AcDbArc
50
180
51
270.00000000000034
0
LINE
5
107
100
AcDbEntity
8
0
100
AcDbLine
10
-45.499999999999901
20
-84.999999999999929
30
0
11
35.500000000000043
21
-84.999999999999943
31
0
0
CIRCLE
5
108
100
AcDbEntity
8
0
100
AcDbCircle
10
12.000000000000028
20
-19.999999999999929
30
0
40
1.2645
210
0
220
-0
230
1
0
CIRCLE
5
109
100
AcDbEntity
8
0
100
AcDbCircle
10
22.000000000000028
20
-35.000005999999928
30
0
40
1.2645
210
0
220
-0
230
1
0
CIRCLE
5
110
100
AcDbEntity
8
0
100
AcDbCircle
10
37.000000000000028
20
-20.000005999999928
30
0
40
1.2645
210
0
220
-0
230
1
0
CIRCLE
5
111
100
AcDbEntity
8
0
100
AcDbCircle
10
37.000000000000028
20
-35.000005999999928
30
0
40
1.2645
210
0
220
-0
230
1
0
CIRCLE
5
112
100
AcDbEntity
8
0
100
AcDbCircle
10
22.000000000000028
20
-20.000005999999928
30
0
40
1.2645
210
0
220
-0
230
1
0
CIRCLE
5
113
100
AcDbEntity
8
0
100
AcDbCircle
10
12.000000000000028
20
-49.999999999999929
30
0
40
1.2645
210
0
220
-0
230
1
0
CIRCLE
5
114
100
AcDbEntity
8
0
100
AcDbCircle
10
29.677031028901553
20
-46.999999999999957
30
0
40
1.6659999999999999
210
0
220
-0
230
1
0
CIRCLE
5
115
100
AcDbEntity
8
0
100
AcDbCircle
10
12.137031028901646
20
-37.999999999999901
30
0
40
1.6659999999999999
210
0
220
-0
230
1
0
CIRCLE
5
116
100
AcDbEntity
8
0
100
AcDbCircle
10
33.000000000000114
20
-74.999999999999929
30
0
40
2.7499999999999858
210
-0
220
0
230
1
0
CIRCLE
5
117
100
AcDbEntity
8
0
100
AcDbCircle
10
11.333333333333471
20
-74.999999999999929
30
0
40
2.7499999999999858
210
-0
220
0
230
1
0
CIRCLE
5
118
100
AcDbEntity
8
0
100
AcDbCircle
10
-10.333333333333243
20
-74.999999999999929
30
0
40
2.7499999999999858
210
-0
220
0
230
1
0
CIRCLE
5
119
100
AcDbEntity
8
0
100
AcDbCircle
10
-31.999999999999886
20
-74.999999999999929
30
0
40
2.7499999999999858
210
-0
220
0
230
1
0
LINE
5
120
100
AcDbEntity
8
0
100
AcDbLine
10
-36.362968971098795
20
-56.02499999999992
30
0
11
-46.362968971098439
21
-56.02499999999992
31
0
0
CIRCLE
5
121
100
AcDbEntity
8
0
100
AcDbCircle
10
-46.362968971098439
20
-54.324999999999903
30
0
40
1.6999999999999993
210
0
220
0
230
1
0
LWPOLYLINE
5
122
100
AcDbEntity
8
0
100
AcDbPolyline
90
4
70
1
43
0.0
10
-15.362968971098425
20
-56.02499999999992
10
-5.3629689710984252
20
-56.02499999999992
42
0.99999999999999989
10
-5.3629689710984252
20
-52.624999999999886
10
-15.362968971098425
20
-52.624999999999901
42
0.99999999999999989
0
CIRCLE
5
123
100
AcDbEntity
8
0
100
AcDbCircle
10
3.0000000000000426
20
-34.999999999999929
30
0
40
1.2645
210
0
220
-0
230
1
0
LINE
5
124
100
AcDbEntity
8
0
100
AcDbLine
10
-46.362968971098439
20
-52.624999999999901
30
0
11
-36.362968971098439
21
-52.624999999999886
31
0
0
ARC
5
125
100
AcDbEntity
8
0
100
AcDbCircle
10
-36.362968971098439
20
-54.324999999999903
30
0
40
1.7000000000000171
210
0
220
0
230
1
100
AcDbArc
50
-90.000000000011966
51
90
0
LWPOLYLINE
5
126
100
AcDbEntity
8
0
100
AcDbPolyline
90
4
70
1
43
0.0
10
-15.362968971098425
20
-25.024999999999906
10
-5.3629689710984252
20
-25.024999999999906
42
0.99999999999999989
10
-5.3629689710984252
20
-21.624999999999872
10
-15.362968971098425
20
-21.62499999999989
42
0.99999999999999989
0
LWPOLYLINE
5
127
100
AcDbEntity
8
0
100
AcDbPolyline
90
4
70
1
43
0.0
10
-46.362968971098368
20
-25.024999999999977
10
-36.362968971098724
20
-25.024999999999977
42
0.99999999999999989
10
-36.362968971098368
20
-21.624999999999943
10
-46.362968971098368
20
-21.624999999999961
42
0.99999999999999989
0
LWPOLYLINE
5
128
100
AcDbEntity
8
0
100
AcDbPolyline
90
4
70
1
43
0.0
10
-30.862968971098326
20
-49.874999999999972
10
-20.862968971098326
20
-49.874999999999972
42
0.99999999999999989
10
-20.862968971098326
20
-27.774999999999892
10
-30.862968971098326
20
-27.774999999999928
42
0.99999999999999989
0
ENDSEC
0
SECTION
2
OBJECTS
0
DICTIONARY
5
C
100
AcDbDictionary
3
ACAD_GROUP
350
D
3
ACAD_MLINESTYLE
350
17
0
DICTIONARY
5
D
100
AcDbDictionary
0
DICTIONARY
5
1A
330
C
100
AcDbDictionary
0
DICTIONARY
5
17
100
AcDbDictionary
0
ENDSEC
0
EOF
