0
SECTION
2
HEADER
9
$INSUNITS
70
4
9
$ACADVER
1
AC1014
9
$HANDSEED
5
FFFF
0
ENDSEC
0
SECTION
2
TABLES
0
TABLE
2
VPORT
5
8
100
AcDbSymbolTable
0
ENDTAB
0
TABLE
2
LTYPE
5
5
100
AcDbSymbolTable
0
LTYPE
5
14
100
AcDbSymbolTableRecord
100
AcDbLinetypeTableRecord
2
BYBLOCK
70
0
0
LTYPE
5
15
100
AcDbSymbolTableRecord
100
AcDbLinetypeTableRecord
2
BYLAYER
70
0
0
ENDTAB
0
TABLE
2
LAYER
5
2
100
AcDbSymbolTable
70
2
0
LAYER
5
50
100
AcDbSymbolTableRecord
100
AcDbLayerTableRecord
2
0
70
0
6
CONTINUOUS
0
ENDTAB
0
TABLE
2
STYLE
5
3
100
AcDbSymbolTable
70
1
0
STYLE
5
11
100
AcDbSymbolTableRecord
100
AcDbTextStyleTableRecord
2
STANDARD
70
0
0
ENDTAB
0
TABLE
2
VIEW
5
6
100
AcDbSymbolTable
70
0
0
ENDTAB
0
TABLE
2
UCS
5
7
100
AcDbSymbolTable
70
0
0
ENDTAB
0
TABLE
2
APPID
5
9
100
AcDbSymbolTable
70
2
0
APPID
5
12
100
AcDbSymbolTableRecord
100
AcDbRegAppTableRecord
2
ACAD
70
0
0
ENDTAB
0
TABLE
2
DIMSTYLE
5
A
100
AcDbSymbolTable
70
1
0
ENDTAB
0
TABLE
2
BLOCK_RECORD
5
1
100
AcDbSymbolTable
70
1
0
BLOCK_RECORD
5
1F
100
AcDbSymbolTableRecord
100
AcDbBlockTableRecord
2
*MODEL_SPACE
0
BLOCK_RECORD
5
1B
100
AcDbSymbolTableRecord
100
AcDbBlockTableRecord
2
*PAPER_SPACE
0
ENDTAB
0
ENDSEC
0
SECTION
2
BLOCKS
0
BLOCK
5
20
100
AcDbEntity
100
AcDbBlockBegin
2
*MODEL_SPACE
0
ENDBLK
5
21
100
AcDbEntity
100
AcDbBlockEnd
0
BLOCK
5
1C
100
AcDbEntity
100
AcDbBlockBegin
2
*PAPER_SPACE
0
ENDBLK
5
1D
100
AcDbEntity
100
AcDbBlockEnd
0
ENDSEC
0
SECTION
2
ENTITIES
0
CIRCLE
5
100
100
AcDbEntity
8
0
100
AcDbCircle
10
33.126878730751798
20
-409.69999999999976
30
0
40
2.7499999999999991
210
0
220
0
230
1
0
CIRCLE
5
101
100
AcDbEntity
8
0
100
AcDbCircle
10
33.12687873075182
20
-427.69999999999976
30
0
40
2.7499999999999991
210
0
220
0
230
1
0
CIRCLE
5
102
100
AcDbEntity
8
0
100
AcDbCircle
10
33.12687873075177
20
-391.69999999999982
30
0
40
2.7499999999999991
210
0
220
0
230
1
0
CIRCLE
5
103
100
AcDbEntity
8
0
100
AcDbCircle
10
-37.005122340556696
20
-465.00000000000171
30
0
40
2.7499999999999991
210
0
220
0
230
1
0
CIRCLE
5
104
100
AcDbEntity
8
0
100
AcDbCircle
10
36.986332089202293
20
-464.99999999999324
30
0
40
2.7499999999999991
210
0
220
0
230
1
0
CIRCLE
5
105
100
AcDbEntity
8
0
100
AcDbCircle
10
-15.523121269248694
20
-394.35000000000008
30
0
40
1.6500000000000004
210
0
220
0
230
1
0
CIRCLE
5
106
100
AcDbEntity
8
0
100
AcDbCircle
10
15.476878730751269
20
-394.35000000000014
30
0
40
1.6500000000000004
210
0
220
0
230
1
0
CIRCLE
5
107
100
AcDbEntity
8
0
100
AcDbCircle
10
15.4768787307513
20
-425.35000000000002
30
0
40
1.6500000000000004
210
0
220
0
230
1
0
CIRCLE
5
108
100
AcDbEntity
8
0
100
AcDbCircle
10
-15.523121269248714
20
-425.35000000000002
30
0
40
1.6500000000000004
210
0
220
0
230
1
0
CIRCLE
5
109
100
AcDbEntity
8
0
100
AcDbCircle
10
-0.023121269248754316
20
-409.85000000000008
30
0
40
11.15
210
0
220
0
230
1
0
CIRCLE
5
110
100
AcDbEntity
8
0
100
AcDbCircle
10
-33.160923494777641
20
-391.67773917032429
30
0
40
2.7499999999999991
210
0
220
0
230
1
0
CIRCLE
5
111
100
AcDbEntity
8
0
100
AcDbCircle
10
-33.173013045962591
20
-409.67773511040025
30
0
40
2.7499999999999991
210
0
220
0
230
1
0
CIRCLE
5
112
100
AcDbEntity
8
0
100
AcDbCircle
10
-33.185102597147548
20
-427.67773105047627
30
0
40
2.7499999999999991
210
0
220
0
230
1
0
LWPOLYLINE
5
113
100
AcDbEntity
8
0
100
AcDbPolyline
90
16
70
1
43
0.0
10
-45.005122340556682
20
-474.5
10
-45.005122340556213
20
-382.19999999999976
42
-0.41421356237318868
10
-44.505122340556227
20
-381.69999999999982
10
44.486332089202278
20
-381.69999999999982
42
-0.41421356237319906
10
44.986332089202293
20
-382.19999999999976
10
44.986332089202286
20
-474.5
42
-0.41421356237310542
10
44.486332089202293
20
-475
10
10.704999998847855
20
-475
42
-0.41421356237311063
10
10.204999998847855
20
-474.5
10
10.204999998847855
20
-455
42
0.41421356237309631
10
9.7049999988478515
20
-454.5
10
-9.7950000011521468
20
-454.5
42
0.41421356237309503
10
-10.295000001152149
20
-455
10
-10.29500000115215
20
-474.5
42
-0.41421356237311063
10
-10.795000001152149
20
-475
10
-44.505122340556667
20
-475
42
-0.41421356237310542
0
LWPOLYLINE
5
114
100
AcDbEntity
8
0
100
AcDbPolyline
90
4
70
1
43
0.0
10
15.958359110091669
20
-468.00000000009106
42
-0.99999999999999989
10
15.958359110097264
20
-461.99999999992031
10
23.958359110132854
20
-462.00000000001074
42
-0.99999999999999989
10
23.95835911005608
20
-467.99999999999051
0
ARC
5
115
100
AcDbEntity
8
0
100
AcDbCircle
10
-16.041639085494836
20
-464.98925373174632
30
0
40
3.0000000001536673
210
0
220
0
230
1
100
AcDbArc
50
-90.038482238717322
51
89.961517761282664
0
LINE
5
116
100
AcDbEntity
8
0
100
AcDbLine
10
-16.043654010650915
20
-467.98925305524597
30
0
11
-24.04365220636177
21
-467.98387992115062
31
0
0
ARC
5
117
100
AcDbEntity
8
0
100
AcDbCircle
10
-24.041637281084121
20
-464.98388059781485
30
0
40
2.9999999999898268
210
0
220
-0
230
1
100
AcDbArc
50
89.961517758958792
51
269.96151775895879
0
LINE
5
118
100
AcDbEntity
8
0
100
AcDbLine
10
-24.039622355806472
20
-461.98388127447907
30
0
11
-16.039624160338754
21
-461.98925440824644
31
0
0
ENDSEC
0
SECTION
2
OBJECTS
0
DICTIONARY
5
C
100
AcDbDictionary
3
ACAD_GROUP
350
D
3
ACAD_MLINESTYLE
350
17
0
DICTIONARY
5
D
100
AcDbDictionary
0
DICTIONARY
5
1A
330
C
100
AcDbDictionary
0
DICTIONARY
5
17
100
AcDbDictionary
0
ENDSEC
0
EOF
