0
SECTION
2
HEADER
9
$INSUNITS
70
4
9
$ACADVER
1
AC1014
9
$HANDSEED
5
FFFF
0
ENDSEC
0
SECTION
2
TABLES
0
TABLE
2
VPORT
5
8
100
AcDbSymbolTable
0
ENDTAB
0
TABLE
2
LTYPE
5
5
100
AcDbSymbolTable
0
LTYPE
5
14
100
AcDbSymbolTableRecord
100
AcDbLinetypeTableRecord
2
BYBLOCK
70
0
0
LTYPE
5
15
100
AcDbSymbolTableRecord
100
AcDbLinetypeTableRecord
2
BYLAYER
70
0
0
ENDTAB
0
TABLE
2
LAYER
5
2
100
AcDbSymbolTable
70
2
0
LAYER
5
50
100
AcDbSymbolTableRecord
100
AcDbLayerTableRecord
2
0
70
0
6
CONTINUOUS
0
ENDTAB
0
TABLE
2
STYLE
5
3
100
AcDbSymbolTable
70
1
0
STYLE
5
11
100
AcDbSymbolTableRecord
100
AcDbTextStyleTableRecord
2
STANDARD
70
0
0
ENDTAB
0
TABLE
2
VIEW
5
6
100
AcDbSymbolTable
70
0
0
ENDTAB
0
TABLE
2
UCS
5
7
100
AcDbSymbolTable
70
0
0
ENDTAB
0
TABLE
2
APPID
5
9
100
AcDbSymbolTable
70
2
0
APPID
5
12
100
AcDbSymbolTableRecord
100
AcDbRegAppTableRecord
2
ACAD
70
0
0
ENDTAB
0
TABLE
2
DIMSTYLE
5
A
100
AcDbSymbolTable
70
1
0
ENDTAB
0
TABLE
2
BLOCK_RECORD
5
1
100
AcDbSymbolTable
70
1
0
BLOCK_RECORD
5
1F
100
AcDbSymbolTableRecord
100
AcDbBlockTableRecord
2
*MODEL_SPACE
0
BLOCK_RECORD
5
1B
100
AcDbSymbolTableRecord
100
AcDbBlockTableRecord
2
*PAPER_SPACE
0
ENDTAB
0
ENDSEC
0
SECTION
2
BLOCKS
0
BLOCK
5
20
100
AcDbEntity
100
AcDbBlockBegin
2
*MODEL_SPACE
0
ENDBLK
5
21
100
AcDbEntity
100
AcDbBlockEnd
0
BLOCK
5
1C
100
AcDbEntity
100
AcDbBlockBegin
2
*PAPER_SPACE
0
ENDBLK
5
1D
100
AcDbEntity
100
AcDbBlockEnd
0
ENDSEC
0
SECTION
2
ENTITIES
0
LWPOLYLINE
5
100
100
AcDbEntity
8
0
100
AcDbPolyline
90
14
70
1
43
0.0
10
442.00000000054104
20
179.39999999999992
42
-0.41421356237310542
10
446.00000000054104
20
175.39999999999992
10
446.00000000054109
20
143.64999999999986
42
-0.4142135623730937
10
442.00000000054109
20
139.64999999999986
10
427.00000000054104
20
139.64999999999986
10
427.00000000054104
20
119.14999999999986
10
442.00000000054104
20
119.14999999999993
42
-0.41421356237309631
10
446.00000000054109
20
115.14999999999986
10
446.00000000054109
20
83.399999999999821
42
-0.4142135623730937
10
442.00000000054109
20
79.399999999999849
10
363.85000000053935
20
79.400000000000063
42
-0.41421356237309503
10
359.85000000053947
20
83.399999999999977
10
359.85000000053901
20
175.39999999999989
42
-0.41421356237309503
10
363.85000000053901
20
179.39999999999986
0
CIRCLE
5
101
100
AcDbEntity
8
0
100
AcDbCircle
10
437.00000000054104
20
148.64999999999986
30
0
40
2.6500000000000057
210
0
220
0
230
1
0
CIRCLE
5
102
100
AcDbEntity
8
0
100
AcDbCircle
10
437.00000000054104
20
167.89999999999986
30
0
40
2.6500000000000057
210
0
220
0
230
1
0
CIRCLE
5
103
100
AcDbEntity
8
0
100
AcDbCircle
10
394.85000000053913
20
92.250000000002288
30
0
40
2.6999999999999957
210
0
220
0
230
1
0
CIRCLE
5
104
100
AcDbEntity
8
0
100
AcDbCircle
10
374.85000000053913
20
92.249999999999403
30
0
40
2.6999999999999957
210
0
220
0
230
1
0
CIRCLE
5
105
100
AcDbEntity
8
0
100
AcDbCircle
10
374.85000000053913
20
166.55000000000032
30
0
40
2.6999999999999957
210
0
220
0
230
1
0
CIRCLE
5
106
100
AcDbEntity
8
0
100
AcDbCircle
10
394.85000000053913
20
166.54999999999688
30
0
40
2.6999999999999957
210
0
220
0
230
1
0
CIRCLE
5
107
100
AcDbEntity
8
0
100
AcDbCircle
10
370.50000000054092
20
113.9000000000002
30
0
40
1.6499999999999915
210
0
220
0
230
1
0
CIRCLE
5
108
100
AcDbEntity
8
0
100
AcDbCircle
10
401.50000000054098
20
113.90000000000012
30
0
40
1.6499999999999915
210
0
220
0
230
1
0
CIRCLE
5
109
100
AcDbEntity
8
0
100
AcDbCircle
10
401.50000000054121
20
144.89999999999964
30
0
40
1.6499999999999915
210
0
220
0
230
1
0
CIRCLE
5
110
100
AcDbEntity
8
0
100
AcDbCircle
10
370.50000000054098
20
144.89999999999955
30
0
40
1.6499999999999915
210
0
220
0
230
1
0
CIRCLE
5
111
100
AcDbEntity
8
0
100
AcDbCircle
10
386.00000000054092
20
129.39999999999986
30
0
40
11.050000000000004
210
0
220
0
230
1
0
CIRCLE
5
112
100
AcDbEntity
8
0
100
AcDbCircle
10
437.00000000054104
20
110.14999999999988
30
0
40
2.6500000000000057
210
0
220
0
230
1
0
CIRCLE
5
113
100
AcDbEntity
8
0
100
AcDbCircle
10
437.00000000054104
20
90.899999999999878
30
0
40
2.6500000000000057
210
0
220
0
230
1
0
CIRCLE
5
114
100
AcDbEntity
8
0
100
AcDbCircle
10
414.85000000053913
20
166.54999999999549
30
0
40
2.6999999999999957
210
0
220
0
230
1
0
CIRCLE
5
115
100
AcDbEntity
8
0
100
AcDbCircle
10
414.85000000053913
20
92.250000000003126
30
0
40
2.6999999999999957
210
0
220
0
230
1
0
LWPOLYLINE
5
116
100
AcDbEntity
8
0
100
AcDbPolyline
90
14
70
1
43
0.0
10
442.00000000054104
20
179.39999999999998
42
-0.41421356237310542
10
446.00000000054104
20
175.39999999999998
10
446.00000000054109
20
143.64999999999995
42
-0.4142135623730937
10
442.00000000054109
20
139.64999999999995
10
427.00000000054104
20
139.64999999999995
10
427.00000000054104
20
119.14999999999993
10
442.00000000054104
20
119.15000000000001
42
-0.41421356237309631
10
446.00000000054109
20
115.14999999999993
10
446.00000000054109
20
83.399999999999963
42
-0.41421356237310542
10
442.00000000054109
20
79.399999999999949
10
363.85000000053935
20
79.399999999999963
42
-0.41421356237309631
10
359.85000000053947
20
83.399999999999892
10
359.85000000053901
20
175.39999999999995
42
-0.41421356237309503
10
363.85000000053901
20
179.39999999999995
0
CIRCLE
5
117
100
AcDbEntity
8
0
100
AcDbCircle
10
394.85000000053913
20
92.250000000002359
30
0
40
2.6999999999999957
210
0
220
0
230
1
0
CIRCLE
5
118
100
AcDbEntity
8
0
100
AcDbCircle
10
386.00000000054092
20
129.39999999999995
30
0
40
11.050000000000004
210
0
220
0
230
1
0
CIRCLE
5
119
100
AcDbEntity
8
0
100
AcDbCircle
10
370.50000000054092
20
113.90000000000028
30
0
40
1.6499999999999915
210
0
220
0
230
1
0
CIRCLE
5
120
100
AcDbEntity
8
0
100
AcDbCircle
10
401.50000000054098
20
113.90000000000018
30
0
40
1.6499999999999915
210
0
220
0
230
1
0
CIRCLE
5
121
100
AcDbEntity
8
0
100
AcDbCircle
10
401.50000000054121
20
144.89999999999969
30
0
40
1.6499999999999915
210
0
220
0
230
1
0
CIRCLE
5
122
100
AcDbEntity
8
0
100
AcDbCircle
10
437.00000000054104
20
110.14999999999995
30
0
40
2.6500000000000057
210
0
220
0
230
1
0
CIRCLE
5
123
100
AcDbEntity
8
0
100
AcDbCircle
10
437.00000000054104
20
167.89999999999992
30
0
40
2.6500000000000057
210
0
220
0
230
1
0
CIRCLE
5
124
100
AcDbEntity
8
0
100
AcDbCircle
10
437.00000000054104
20
148.64999999999992
30
0
40
2.6500000000000057
210
0
220
0
230
1
0
CIRCLE
5
125
100
AcDbEntity
8
0
100
AcDbCircle
10
437.00000000054104
20
90.899999999999949
30
0
40
2.6500000000000057
210
0
220
0
230
1
0
CIRCLE
5
126
100
AcDbEntity
8
0
100
AcDbCircle
10
394.85000000053913
20
166.54999999999694
30
0
40
2.6999999999999957
210
0
220
0
230
1
0
CIRCLE
5
127
100
AcDbEntity
8
0
100
AcDbCircle
10
374.85000000053913
20
166.55000000000041
30
0
40
2.6999999999999957
210
0
220
0
230
1
0
CIRCLE
5
128
100
AcDbEntity
8
0
100
AcDbCircle
10
374.85000000053913
20
92.249999999999488
30
0
40
2.6999999999999957
210
0
220
0
230
1
0
CIRCLE
5
129
100
AcDbEntity
8
0
100
AcDbCircle
10
370.50000000054098
20
144.89999999999961
30
0
40
1.6499999999999915
210
0
220
0
230
1
0
CIRCLE
5
130
100
AcDbEntity
8
0
100
AcDbCircle
10
414.85000000053913
20
92.250000000003197
30
0
40
2.6999999999999957
210
0
220
0
230
1
0
CIRCLE
5
131
100
AcDbEntity
8
0
100
AcDbCircle
10
414.85000000053913
20
166.54999999999558
30
0
40
2.6999999999999957
210
0
220
0
230
1
0
ENDSEC
0
SECTION
2
OBJECTS
0
DICTIONARY
5
C
100
AcDbDictionary
3
ACAD_GROUP
350
D
3
ACAD_MLINESTYLE
350
17
0
DICTIONARY
5
D
100
AcDbDictionary
0
DICTIONARY
5
1A
330
C
100
AcDbDictionary
0
DICTIONARY
5
17
100
AcDbDictionary
0
ENDSEC
0
EOF
